<?xml version="1.0" encoding="utf-8"?>
<!-- Generator: Adobe Illustrator 26.0.2, SVG Export Plug-In . SVG Version: 6.00 Build 0)  -->
<svg version="1.1" id="圖層_1" xmlns="http://www.w3.org/2000/svg" xmlns:xlink="http://www.w3.org/1999/xlink" x="0px" y="0px"
	 viewBox="0 0 80 80" style="enable-background:new 0 0 80 80;" xml:space="preserve">
<style type="text/css">
	.st0{fill:none;stroke:#828282;stroke-width:3;stroke-miterlimit:10;}
	.st1{fill:#828282;}
</style>
<g>
	<line class="st0" x1="5.6" y1="43.5" x2="40.8" y2="8.3"/>
	<line class="st0" x1="74.4" y1="43.1" x2="39.2" y2="7.9"/>
</g>
<g>
	<g>
		<path class="st1" d="M23.1,59.4h-4.8V57h12.5v2.4H26v13h-2.9V59.4z"/>
		<path class="st1" d="M46.9,64.6c0,4.3-2.5,8-7.5,8c-4.7,0-7.3-3.5-7.3-7.9c0-4.5,2.7-7.9,7.5-7.9C44,56.8,46.9,60,46.9,64.6z
			 M35.1,64.6c0,3.1,1.5,5.6,4.4,5.6c3.2,0,4.4-2.6,4.4-5.6c0-3.1-1.3-5.5-4.4-5.5C36.4,59.2,35.1,61.5,35.1,64.6z"/>
		<path class="st1" d="M49.9,57h6.2c3.2,0,5.3,1.8,5.3,4.7c0,3.2-2.4,4.8-5.4,4.8h-3.2v6h-2.9V57z M52.8,64.1h2.9
			c1.7,0,2.8-0.7,2.8-2.4c0-1.7-1.2-2.4-2.7-2.4h-3V64.1z"/>
	</g>
</g>
</svg>
