<?xml version="1.0" ?><!DOCTYPE svg  PUBLIC '-//W3C//DTD SVG 1.1//EN'  'http://www.w3.org/Graphics/SVG/1.1/DTD/svg11.dtd'><svg enable-background="new 0 0 48 48" height="48px" version="1.1" viewBox="0 0 48 48" width="48px" xml:space="preserve" xmlns="http://www.w3.org/2000/svg" xmlns:xlink="http://www.w3.org/1999/xlink"><g id="Layer_1"/><g id="Layer_2"><g><polygon points="27.498,16.19 27.487,16.196 26.532,14.438 28.194,13.533 28.194,13.532 28.359,13.432 29.6,9.463 27.214,8.718     26.974,9.488 26.938,9.488 24.051,18.789 24.074,18.771 24.067,18.792   "/><polygon points="30.46,9.488 30.439,9.488 30.42,9.516 30.44,9.516   "/><polygon points="24.041,18.771 20.9,8.718 18.515,9.463 18.522,9.488 18.502,9.488 19.751,13.487 21.497,14.438 20.577,16.13     24.016,18.768 24.026,18.801 24.032,18.781 24.043,18.789 24.037,18.769   "/><path d="M19.795,16.898L19.795,16.898l-0.585-0.439l0.77-1.625l-1.25-0.708l-0.289-0.979l0,0l-1.133-3.63h-1.121    c-0.325,0.088-0.696,0.235-1.044,0.493c-0.873,0.649-1.127,1.377-1.195,1.6c-0.002,0.01-0.021,0.007-0.029,0.013l-0.131,0.358    v0.001L4.383,37.73l5.416,1.451l2.843-7.799l0.001-0.004l1.145-3.141v0.104l2.921-7.753v15.968h6.714V19.68L19.795,16.898z"/><path d="M35.186,14.206L35.186,14.206l-0.93-2.534c-0.037-0.025-0.068-0.058-0.082-0.104c-0.119-0.412-0.664-1.259-1.348-1.671    c-0.285-0.171-0.634-0.285-0.945-0.362V9.516h-1.108l-1.157,3.702l-0.053,0.032H29.6l-0.289,0.979l-1.25,0.708l0.77,1.625    l-0.585,0.439l-0.006-0.011l-3.095,2.347l-0.473,0.358v16.86h6.883l0.049-16.026l4.041,11.38l2.549,6.998l0.1,0.373l5.418-1.451    L35.186,14.206z"/></g></g></svg>