<?xml version="1.0" ?><!DOCTYPE svg  PUBLIC '-//W3C//DTD SVG 1.1//EN'  'http://www.w3.org/Graphics/SVG/1.1/DTD/svg11.dtd'><svg height="512px" style="shape-rendering:geometricPrecision; text-rendering:geometricPrecision; image-rendering:optimizeQuality; fill-rule:evenodd; clip-rule:evenodd" version="1.1" viewBox="0 0 512 512" width="512px" xml:space="preserve" xmlns="http://www.w3.org/2000/svg" xmlns:xlink="http://www.w3.org/1999/xlink" xmlns:xodm="http://www.corel.com/coreldraw/odm/2003"><defs><style type="text/css">
   <![CDATA[
    .fil1 {fill:white;fill-rule:nonzero}
    .fil0 {fill:url(#id0)}
   ]]>
  </style><linearGradient gradientUnits="userSpaceOnUse" id="id0" x1="67.83" x2="474.19" y1="82.42" y2="389.98"><stop offset="0" style="stop-opacity:1; stop-color:#3ACD01"/><stop offset="1" style="stop-opacity:1; stop-color:#4BE010"/></linearGradient></defs><g id="Layer_x0020_1"><g id="_1725966223216"><path class="fil0" d="M256 0c141.39,0 256,114.61 256,256 0,141.39 -114.61,256 -256,256 -141.39,0 -256,-114.61 -256,-256 0,-141.39 114.61,-256 256,-256z"/><path class="fil1" d="M256 119.53c80.56,0 145.87,52.29 145.87,116.8 0,77.65 -144.76,164.26 -155.92,155.53 -9.6,-7.5 16.67,-35.95 -15.57,-40.53 -58.67,-8.38 -120.25,-50.14 -120.25,-115 0,-64.51 65.31,-116.8 145.87,-116.8zm-84 154.05l28.79 0c4.18,0 7.6,-3.42 7.6,-7.6 0,-4.51 -2.87,-8.25 -7.6,-8.25l-21.18 0 0 -48.18c0,-4.18 -3.42,-7.6 -7.61,-7.6 -4.51,0 -8.24,2.87 -8.24,7.6l0 56.43c0,4.72 3.73,7.6 8.24,7.6zm181.66 -35.36c0,-4.51 -2.87,-8.24 -7.61,-8.24l-21.17 0 0 -12.05 21.17 0c4.19,0 7.61,-3.42 7.61,-7.61 0,-4.51 -2.88,-8.24 -7.61,-8.24l-28.78 0c-4.51,0 -8.24,2.88 -8.24,7.61l0 56.42c0,4.19 3.42,7.61 7.61,7.61l29.41 0c4.19,0 7.61,-3.42 7.61,-7.61 0,-4.51 -2.87,-8.24 -7.61,-8.24l-21.17 0 0 -12.04 21.17 0c4.19,0 7.61,-3.43 7.61,-7.61zm-54.37 27.76l0 -56.42c0,-4.19 -3.42,-7.61 -7.61,-7.61 -4.51,0 -8.24,2.87 -8.24,7.61l0 33.12 -27.5 -36.89c-1.31,-2.29 -3.79,-3.84 -6.6,-3.84 -4.51,0 -8.25,2.87 -8.25,7.61l0 56.42c0,4.73 3.73,7.61 8.25,7.61 4.18,0 7.6,-3.43 7.6,-7.61l0 -33.74 27.7 37.82c1.45,2.25 3.66,3.52 6.4,3.52 4.53,0 8.25,-2.84 8.25,-7.6zm-76.51 7.6c4.18,0 7.6,-3.42 7.6,-7.6l0 -56.42c0,-4.19 -3.42,-7.61 -7.6,-7.61 -4.51,0 -8.25,2.87 -8.25,7.61l0 56.42c0,4.73 3.74,7.6 8.25,7.6z"/></g></g></svg>