<?xml version="1.0" ?><!DOCTYPE svg  PUBLIC '-//W3C//DTD SVG 1.1//EN'  'http://www.w3.org/Graphics/SVG/1.1/DTD/svg11.dtd'><svg enable-background="new 0 0 48 48" height="48px" version="1.1" viewBox="0 0 48 48" width="48px" xml:space="preserve" xmlns="http://www.w3.org/2000/svg" xmlns:xlink="http://www.w3.org/1999/xlink"><g id="Layer_1"/><g id="Layer_2"><g><polygon points="20.097,21.071 18.377,41.406 22.265,41.406 23.151,31.99 23.786,27.322 24.478,31.99 25.363,41.406 29.25,41.406     28.055,21.071   "/><path d="M29.689,9.064L29.689,9.064L29.215,7.77c-0.02-0.013-0.035-0.029-0.042-0.054c-0.062-0.211-0.339-0.643-0.688-0.853    c-0.351-0.211-0.894-0.258-0.894-0.258l0.037-0.011h-1.761c-0.186,0.858-0.946,1.503-1.86,1.503s-1.676-0.645-1.861-1.503h-1.725    l0.01,0.011c0,0-0.532-0.017-0.979,0.314c-0.446,0.332-0.575,0.703-0.61,0.816c-0.001,0.006-0.012,0.004-0.015,0.007L18.76,7.927    L13.957,21.08l2.766,0.741l1.452-3.983l0.001-0.002l0.584-1.604v0.052l1.492-3.959V19h7.588l0.02-6.706l2.064,5.813l1.302,3.574    l0.052,0.19l2.767-0.741L29.689,9.064z"/></g></g></svg>